<mxfile host="app.diagrams.net" modified="2024-04-13T13:36:00.803Z" agent="Mozilla/5.0 (Macintosh; Intel Mac OS X 10_15_7) AppleWebKit/537.36 (KHTML, like Gecko) Chrome/123.0.0.0 Safari/537.36" etag="ZmuYz35GpjoH1ua5V3_t" version="24.0.6" type="github">
  <diagram name="Page-1" id="74e2e168-ea6b-b213-b513-2b3c1d86103e">
    <mxGraphModel dx="2388" dy="988" grid="1" gridSize="10" guides="1" tooltips="1" connect="1" arrows="1" fold="1" page="1" pageScale="1" pageWidth="1100" pageHeight="850" background="none" math="0" shadow="0">
      <root>
        <mxCell id="0" />
        <mxCell id="1" parent="0" />
        <mxCell id="juHsKR98GJSo30kuV_IV-2" value="" style="rounded=1;whiteSpace=wrap;html=1;movable=1;resizable=1;rotatable=1;deletable=1;editable=1;locked=0;connectable=1;" vertex="1" parent="1">
          <mxGeometry x="40" y="50" width="350" height="920" as="geometry" />
        </mxCell>
        <mxCell id="77e6c97f196da883-1" value="Reine" style="swimlane;html=1;childLayout=stackLayout;startSize=20;rounded=0;shadow=0;labelBackgroundColor=none;strokeWidth=1;fontFamily=Verdana;fontSize=8;align=center;" parent="1" vertex="1">
          <mxGeometry x="560" y="40" width="1000" height="930" as="geometry" />
        </mxCell>
        <mxCell id="juHsKR98GJSo30kuV_IV-35" value="Guest User" style="swimlane;whiteSpace=wrap;html=1;startSize=20;" vertex="1" parent="77e6c97f196da883-1">
          <mxGeometry y="20" width="200" height="910" as="geometry" />
        </mxCell>
        <mxCell id="juHsKR98GJSo30kuV_IV-50" value="" style="edgeStyle=orthogonalEdgeStyle;rounded=0;orthogonalLoop=1;jettySize=auto;html=1;" edge="1" parent="juHsKR98GJSo30kuV_IV-35" source="juHsKR98GJSo30kuV_IV-45" target="juHsKR98GJSo30kuV_IV-49">
          <mxGeometry relative="1" as="geometry" />
        </mxCell>
        <mxCell id="juHsKR98GJSo30kuV_IV-45" value="ユーザー登録 / ログイン&lt;div&gt;マンダラチャートの非共有&lt;/div&gt;&lt;div&gt;ユーザー&lt;/div&gt;" style="rounded=1;whiteSpace=wrap;html=1;shadow=0;labelBackgroundColor=none;strokeWidth=1;fontFamily=Verdana;fontSize=8;align=center;" vertex="1" parent="juHsKR98GJSo30kuV_IV-35">
          <mxGeometry x="40" y="40" width="120" height="60" as="geometry" />
        </mxCell>
        <mxCell id="juHsKR98GJSo30kuV_IV-49" value="&lt;span style=&quot;font-size: 10px;&quot;&gt;マンダラチャート&lt;/span&gt;&lt;div&gt;&lt;span style=&quot;font-size: 10px;&quot;&gt;作成&lt;/span&gt;&lt;/div&gt;" style="rounded=0;whiteSpace=wrap;html=1;" vertex="1" parent="juHsKR98GJSo30kuV_IV-35">
          <mxGeometry x="40" y="580" width="120" height="60" as="geometry" />
        </mxCell>
        <mxCell id="juHsKR98GJSo30kuV_IV-36" value="Auth User" style="swimlane;whiteSpace=wrap;html=1;startSize=20;" vertex="1" parent="77e6c97f196da883-1">
          <mxGeometry x="200" y="20" width="200" height="910" as="geometry" />
        </mxCell>
        <mxCell id="juHsKR98GJSo30kuV_IV-52" value="" style="edgeStyle=orthogonalEdgeStyle;rounded=0;orthogonalLoop=1;jettySize=auto;html=1;" edge="1" parent="juHsKR98GJSo30kuV_IV-36" source="juHsKR98GJSo30kuV_IV-47" target="juHsKR98GJSo30kuV_IV-51">
          <mxGeometry relative="1" as="geometry" />
        </mxCell>
        <mxCell id="juHsKR98GJSo30kuV_IV-47" value="ユーザー登録 / ログイン&lt;div&gt;マンダラチャートの共有&lt;/div&gt;&lt;div&gt;ユーザー&lt;/div&gt;" style="rounded=1;whiteSpace=wrap;html=1;shadow=0;labelBackgroundColor=none;strokeWidth=1;fontFamily=Verdana;fontSize=8;align=center;" vertex="1" parent="juHsKR98GJSo30kuV_IV-36">
          <mxGeometry x="40" y="40" width="120" height="60" as="geometry" />
        </mxCell>
        <mxCell id="juHsKR98GJSo30kuV_IV-54" value="" style="edgeStyle=orthogonalEdgeStyle;rounded=0;orthogonalLoop=1;jettySize=auto;html=1;entryX=0.5;entryY=0;entryDx=0;entryDy=0;" edge="1" parent="juHsKR98GJSo30kuV_IV-36" source="juHsKR98GJSo30kuV_IV-51" target="juHsKR98GJSo30kuV_IV-58">
          <mxGeometry relative="1" as="geometry">
            <mxPoint x="79.99999999999977" y="219.99999999999994" as="targetPoint" />
          </mxGeometry>
        </mxCell>
        <mxCell id="juHsKR98GJSo30kuV_IV-51" value="&lt;font style=&quot;font-size: 10px;&quot;&gt;共有許可マンダラチャート一覧表示&lt;/font&gt;" style="whiteSpace=wrap;html=1;" vertex="1" parent="juHsKR98GJSo30kuV_IV-36">
          <mxGeometry x="40" y="140" width="120" height="60" as="geometry" />
        </mxCell>
        <mxCell id="juHsKR98GJSo30kuV_IV-60" value="" style="edgeStyle=orthogonalEdgeStyle;rounded=0;orthogonalLoop=1;jettySize=auto;html=1;" edge="1" parent="juHsKR98GJSo30kuV_IV-36" source="juHsKR98GJSo30kuV_IV-58" target="juHsKR98GJSo30kuV_IV-59">
          <mxGeometry relative="1" as="geometry" />
        </mxCell>
        <mxCell id="juHsKR98GJSo30kuV_IV-58" value="&lt;font style=&quot;font-size: 10px;&quot;&gt;類似マンダラチャート&lt;/font&gt;&lt;div&gt;&lt;font style=&quot;font-size: 10px;&quot;&gt;検索&lt;/font&gt;&lt;/div&gt;" style="whiteSpace=wrap;html=1;" vertex="1" parent="juHsKR98GJSo30kuV_IV-36">
          <mxGeometry x="40" y="250" width="120" height="60" as="geometry" />
        </mxCell>
        <mxCell id="juHsKR98GJSo30kuV_IV-66" value="" style="edgeStyle=orthogonalEdgeStyle;rounded=0;orthogonalLoop=1;jettySize=auto;html=1;" edge="1" parent="juHsKR98GJSo30kuV_IV-36" source="juHsKR98GJSo30kuV_IV-59" target="juHsKR98GJSo30kuV_IV-65">
          <mxGeometry relative="1" as="geometry" />
        </mxCell>
        <mxCell id="juHsKR98GJSo30kuV_IV-59" value="&lt;font style=&quot;font-size: 8px;&quot;&gt;引用マンダラチャートの&lt;/font&gt;&lt;div&gt;&lt;font style=&quot;font-size: 8px;&quot;&gt;有無&lt;/font&gt;&lt;/div&gt;" style="rhombus;whiteSpace=wrap;html=1;" vertex="1" parent="juHsKR98GJSo30kuV_IV-36">
          <mxGeometry x="40" y="350" width="120" height="70" as="geometry" />
        </mxCell>
        <mxCell id="juHsKR98GJSo30kuV_IV-80" value="" style="edgeStyle=orthogonalEdgeStyle;rounded=0;orthogonalLoop=1;jettySize=auto;html=1;" edge="1" parent="juHsKR98GJSo30kuV_IV-36" source="juHsKR98GJSo30kuV_IV-65">
          <mxGeometry relative="1" as="geometry">
            <mxPoint x="100" y="580.0000000000001" as="targetPoint" />
          </mxGeometry>
        </mxCell>
        <mxCell id="juHsKR98GJSo30kuV_IV-65" value="&lt;span style=&quot;font-size: 10px;&quot;&gt;マンダラチャート&lt;br&gt;引用作成&lt;/span&gt;" style="whiteSpace=wrap;html=1;" vertex="1" parent="juHsKR98GJSo30kuV_IV-36">
          <mxGeometry x="40" y="470" width="120" height="60" as="geometry" />
        </mxCell>
        <mxCell id="juHsKR98GJSo30kuV_IV-67" value="&lt;font style=&quot;font-size: 10px;&quot;&gt;あり&lt;/font&gt;" style="text;html=1;align=center;verticalAlign=middle;resizable=0;points=[];autosize=1;strokeColor=none;fillColor=none;" vertex="1" parent="juHsKR98GJSo30kuV_IV-36">
          <mxGeometry x="100" y="430" width="40" height="30" as="geometry" />
        </mxCell>
        <mxCell id="juHsKR98GJSo30kuV_IV-82" style="edgeStyle=orthogonalEdgeStyle;rounded=0;orthogonalLoop=1;jettySize=auto;html=1;exitX=0;exitY=0.5;exitDx=0;exitDy=0;" edge="1" parent="juHsKR98GJSo30kuV_IV-36" source="juHsKR98GJSo30kuV_IV-59">
          <mxGeometry relative="1" as="geometry">
            <mxPoint x="40" y="610.0344827586207" as="targetPoint" />
            <Array as="points">
              <mxPoint x="20" y="385" />
              <mxPoint x="20" y="610" />
            </Array>
          </mxGeometry>
        </mxCell>
        <mxCell id="juHsKR98GJSo30kuV_IV-91" value="&lt;font style=&quot;font-size: 10px;&quot;&gt;なし&lt;/font&gt;" style="text;html=1;align=center;verticalAlign=middle;resizable=0;points=[];autosize=1;strokeColor=none;fillColor=none;" vertex="1" parent="juHsKR98GJSo30kuV_IV-36">
          <mxGeometry x="20" y="430" width="40" height="30" as="geometry" />
        </mxCell>
        <mxCell id="juHsKR98GJSo30kuV_IV-112" style="edgeStyle=orthogonalEdgeStyle;rounded=0;orthogonalLoop=1;jettySize=auto;html=1;entryX=0.5;entryY=1;entryDx=0;entryDy=0;" edge="1" parent="juHsKR98GJSo30kuV_IV-36" source="juHsKR98GJSo30kuV_IV-96" target="juHsKR98GJSo30kuV_IV-111">
          <mxGeometry relative="1" as="geometry" />
        </mxCell>
        <mxCell id="juHsKR98GJSo30kuV_IV-96" value="&lt;span style=&quot;font-size: 10px;&quot;&gt;行動振り返りの記入&lt;/span&gt;" style="shape=loopLimit;whiteSpace=wrap;html=1;" vertex="1" parent="juHsKR98GJSo30kuV_IV-36">
          <mxGeometry x="40" y="670" width="120" height="60" as="geometry" />
        </mxCell>
        <mxCell id="juHsKR98GJSo30kuV_IV-106" style="edgeStyle=orthogonalEdgeStyle;rounded=0;orthogonalLoop=1;jettySize=auto;html=1;" edge="1" parent="juHsKR98GJSo30kuV_IV-36" source="juHsKR98GJSo30kuV_IV-103" target="juHsKR98GJSo30kuV_IV-96">
          <mxGeometry relative="1" as="geometry" />
        </mxCell>
        <mxCell id="juHsKR98GJSo30kuV_IV-103" value="&lt;span style=&quot;font-size: 10px;&quot;&gt;マンダラチャート&lt;/span&gt;&lt;div&gt;&lt;span style=&quot;font-size: 10px;&quot;&gt;作成&lt;/span&gt;&lt;/div&gt;" style="rounded=0;whiteSpace=wrap;html=1;" vertex="1" parent="juHsKR98GJSo30kuV_IV-36">
          <mxGeometry x="40" y="570" width="120" height="60" as="geometry" />
        </mxCell>
        <mxCell id="juHsKR98GJSo30kuV_IV-111" value="" style="shape=loopLimit;whiteSpace=wrap;html=1;rotation=-180;" vertex="1" parent="juHsKR98GJSo30kuV_IV-36">
          <mxGeometry x="40" y="770" width="120" height="60" as="geometry" />
        </mxCell>
        <mxCell id="juHsKR98GJSo30kuV_IV-120" value="&lt;font style=&quot;font-size: 10px;&quot;&gt;スキルの習得&lt;/font&gt;" style="text;html=1;align=center;verticalAlign=middle;resizable=0;points=[];autosize=1;strokeColor=none;fillColor=none;" vertex="1" parent="juHsKR98GJSo30kuV_IV-36">
          <mxGeometry x="60" y="785" width="80" height="30" as="geometry" />
        </mxCell>
        <mxCell id="77e6c97f196da883-4" value="GroupAdminUser" style="swimlane;html=1;startSize=20;" parent="77e6c97f196da883-1" vertex="1">
          <mxGeometry x="400" y="20" width="200" height="910" as="geometry" />
        </mxCell>
        <mxCell id="juHsKR98GJSo30kuV_IV-30" value="&lt;div&gt;ユーザー登録 / ログイン&lt;/div&gt;&lt;div&gt;有料グループ管理者&lt;br&gt;&lt;/div&gt;" style="rounded=1;whiteSpace=wrap;html=1;shadow=0;labelBackgroundColor=none;strokeWidth=1;fontFamily=Verdana;fontSize=8;align=center;" vertex="1" parent="77e6c97f196da883-4">
          <mxGeometry x="40" y="40" width="120" height="60" as="geometry" />
        </mxCell>
        <mxCell id="77e6c97f196da883-5" value="Root User" style="swimlane;html=1;startSize=20;movable=1;resizable=1;rotatable=1;deletable=1;editable=1;locked=0;connectable=1;" parent="77e6c97f196da883-1" vertex="1">
          <mxGeometry x="600" y="20" width="200" height="910" as="geometry" />
        </mxCell>
        <mxCell id="juHsKR98GJSo30kuV_IV-48" value="&lt;div&gt;ユーザー登録 / ログイン&lt;/div&gt;&lt;div&gt;アプリケーション管理者&lt;/div&gt;" style="rounded=1;whiteSpace=wrap;html=1;shadow=0;labelBackgroundColor=none;strokeWidth=1;fontFamily=Verdana;fontSize=8;align=center;" vertex="1" parent="77e6c97f196da883-5">
          <mxGeometry x="40" y="40" width="120" height="60" as="geometry" />
        </mxCell>
        <mxCell id="juHsKR98GJSo30kuV_IV-34" value="DB" style="swimlane;whiteSpace=wrap;html=1;startSize=20;" vertex="1" parent="77e6c97f196da883-1">
          <mxGeometry x="800" y="20" width="200" height="910" as="geometry" />
        </mxCell>
        <mxCell id="juHsKR98GJSo30kuV_IV-92" value="マンダラチャート&lt;div&gt;保存&lt;/div&gt;" style="shape=cylinder3;whiteSpace=wrap;html=1;boundedLbl=1;backgroundOutline=1;size=15;" vertex="1" parent="juHsKR98GJSo30kuV_IV-34">
          <mxGeometry x="40" y="670" width="120" height="70" as="geometry" />
        </mxCell>
        <mxCell id="juHsKR98GJSo30kuV_IV-121" value="振り返りの保存" style="shape=cylinder3;whiteSpace=wrap;html=1;boundedLbl=1;backgroundOutline=1;size=15;" vertex="1" parent="juHsKR98GJSo30kuV_IV-34">
          <mxGeometry x="40" y="770" width="120" height="70" as="geometry" />
        </mxCell>
        <mxCell id="juHsKR98GJSo30kuV_IV-94" style="edgeStyle=orthogonalEdgeStyle;rounded=0;orthogonalLoop=1;jettySize=auto;html=1;entryX=0.5;entryY=0;entryDx=0;entryDy=0;entryPerimeter=0;exitX=0.5;exitY=1;exitDx=0;exitDy=0;" edge="1" parent="77e6c97f196da883-1" source="juHsKR98GJSo30kuV_IV-65" target="juHsKR98GJSo30kuV_IV-92">
          <mxGeometry relative="1" as="geometry">
            <mxPoint x="300" y="660" as="sourcePoint" />
            <Array as="points">
              <mxPoint x="300" y="570" />
              <mxPoint x="900" y="570" />
            </Array>
          </mxGeometry>
        </mxCell>
        <mxCell id="juHsKR98GJSo30kuV_IV-104" style="edgeStyle=orthogonalEdgeStyle;rounded=0;orthogonalLoop=1;jettySize=auto;html=1;entryX=0.5;entryY=0;entryDx=0;entryDy=0;entryPerimeter=0;" edge="1" parent="77e6c97f196da883-1" source="juHsKR98GJSo30kuV_IV-49" target="juHsKR98GJSo30kuV_IV-92">
          <mxGeometry relative="1" as="geometry">
            <Array as="points">
              <mxPoint x="100" y="670" />
              <mxPoint x="900" y="670" />
            </Array>
          </mxGeometry>
        </mxCell>
        <mxCell id="juHsKR98GJSo30kuV_IV-105" style="edgeStyle=orthogonalEdgeStyle;rounded=0;orthogonalLoop=1;jettySize=auto;html=1;" edge="1" parent="77e6c97f196da883-1" source="juHsKR98GJSo30kuV_IV-103" target="juHsKR98GJSo30kuV_IV-92">
          <mxGeometry relative="1" as="geometry">
            <Array as="points">
              <mxPoint x="300" y="670" />
              <mxPoint x="900" y="670" />
            </Array>
          </mxGeometry>
        </mxCell>
        <mxCell id="juHsKR98GJSo30kuV_IV-125" style="edgeStyle=orthogonalEdgeStyle;rounded=0;orthogonalLoop=1;jettySize=auto;html=1;entryX=0.5;entryY=0;entryDx=0;entryDy=0;entryPerimeter=0;" edge="1" parent="77e6c97f196da883-1" target="juHsKR98GJSo30kuV_IV-121">
          <mxGeometry relative="1" as="geometry">
            <mxPoint x="300" y="750" as="sourcePoint" />
            <Array as="points">
              <mxPoint x="300" y="770" />
              <mxPoint x="900" y="770" />
            </Array>
          </mxGeometry>
        </mxCell>
        <mxCell id="juHsKR98GJSo30kuV_IV-5" value="凡例" style="text;html=1;align=center;verticalAlign=middle;whiteSpace=wrap;rounded=0;" vertex="1" parent="1">
          <mxGeometry x="185" y="60" width="60" height="30" as="geometry" />
        </mxCell>
        <mxCell id="juHsKR98GJSo30kuV_IV-10" value="" style="rounded=1;whiteSpace=wrap;html=1;" vertex="1" parent="1">
          <mxGeometry x="60" y="180" width="120" height="60" as="geometry" />
        </mxCell>
        <mxCell id="juHsKR98GJSo30kuV_IV-11" value="&lt;span style=&quot;font-size: 10px;&quot;&gt;開始・終了&lt;/span&gt;" style="text;html=1;align=center;verticalAlign=middle;whiteSpace=wrap;rounded=0;" vertex="1" parent="1">
          <mxGeometry x="210" y="180" width="150" height="30" as="geometry" />
        </mxCell>
        <mxCell id="juHsKR98GJSo30kuV_IV-12" value="&lt;font style=&quot;font-size: 8px;&quot;&gt;アプリケーション利用開始操作、利用終了状態を意味します。&lt;/font&gt;" style="text;html=1;align=left;verticalAlign=middle;whiteSpace=wrap;rounded=0;" vertex="1" parent="1">
          <mxGeometry x="190" y="200" width="190" height="40" as="geometry" />
        </mxCell>
        <mxCell id="juHsKR98GJSo30kuV_IV-13" value="" style="rounded=0;whiteSpace=wrap;html=1;" vertex="1" parent="1">
          <mxGeometry x="60" y="270" width="120" height="60" as="geometry" />
        </mxCell>
        <mxCell id="juHsKR98GJSo30kuV_IV-15" value="&lt;font style=&quot;font-size: 10px;&quot;&gt;プロセス・処理&lt;/font&gt;" style="text;html=1;align=center;verticalAlign=middle;whiteSpace=wrap;rounded=0;" vertex="1" parent="1">
          <mxGeometry x="210" y="270" width="150" height="30" as="geometry" />
        </mxCell>
        <mxCell id="juHsKR98GJSo30kuV_IV-16" value="&lt;span style=&quot;font-size: 8px;&quot;&gt;一つの処理、プロセスを意味します。&lt;/span&gt;&lt;div&gt;&lt;span style=&quot;font-size: 8px;&quot;&gt;どのような処理を行うかを記述しています。&lt;/span&gt;&lt;/div&gt;" style="text;html=1;align=left;verticalAlign=middle;whiteSpace=wrap;rounded=0;" vertex="1" parent="1">
          <mxGeometry x="190" y="290" width="190" height="40" as="geometry" />
        </mxCell>
        <mxCell id="juHsKR98GJSo30kuV_IV-17" value="" style="rhombus;whiteSpace=wrap;html=1;" vertex="1" parent="1">
          <mxGeometry x="60" y="360" width="120" height="70" as="geometry" />
        </mxCell>
        <mxCell id="juHsKR98GJSo30kuV_IV-18" value="&lt;font style=&quot;font-size: 10px;&quot;&gt;処理の分岐&lt;/font&gt;" style="text;html=1;align=center;verticalAlign=middle;whiteSpace=wrap;rounded=0;" vertex="1" parent="1">
          <mxGeometry x="232.5" y="360" width="105" height="30" as="geometry" />
        </mxCell>
        <mxCell id="juHsKR98GJSo30kuV_IV-21" value="&lt;span style=&quot;font-size: 8px;&quot;&gt;処理が分岐するときの条件を記しています。&lt;/span&gt;&lt;div&gt;&lt;span style=&quot;font-size: 8px;&quot;&gt;条件に即して次の処理に分岐していきます。&lt;/span&gt;&lt;/div&gt;" style="text;html=1;align=left;verticalAlign=middle;whiteSpace=wrap;rounded=0;" vertex="1" parent="1">
          <mxGeometry x="190" y="380" width="190" height="40" as="geometry" />
        </mxCell>
        <mxCell id="juHsKR98GJSo30kuV_IV-22" value="&lt;font style=&quot;font-size: 10px;&quot;&gt;矢印&lt;/font&gt;" style="text;html=1;align=center;verticalAlign=middle;whiteSpace=wrap;rounded=0;" vertex="1" parent="1">
          <mxGeometry x="210" y="100" width="150" height="30" as="geometry" />
        </mxCell>
        <mxCell id="juHsKR98GJSo30kuV_IV-23" value="&lt;span style=&quot;font-size: 8px;&quot;&gt;処理や操作の流れや、データの流れを意味します。&lt;/span&gt;" style="text;html=1;align=left;verticalAlign=middle;whiteSpace=wrap;rounded=0;" vertex="1" parent="1">
          <mxGeometry x="190" y="120" width="190" height="40" as="geometry" />
        </mxCell>
        <mxCell id="juHsKR98GJSo30kuV_IV-25" value="" style="endArrow=classic;html=1;rounded=0;" edge="1" parent="1">
          <mxGeometry width="50" height="50" relative="1" as="geometry">
            <mxPoint x="65" y="130.38" as="sourcePoint" />
            <mxPoint x="175" y="130" as="targetPoint" />
          </mxGeometry>
        </mxCell>
        <mxCell id="juHsKR98GJSo30kuV_IV-26" value="" style="shape=cylinder3;whiteSpace=wrap;html=1;boundedLbl=1;backgroundOutline=1;size=15;" vertex="1" parent="1">
          <mxGeometry x="60" y="450" width="120" height="70" as="geometry" />
        </mxCell>
        <mxCell id="juHsKR98GJSo30kuV_IV-27" value="&lt;span style=&quot;font-size: 8px;&quot;&gt;データをデータベースや別のシステムへ入出力する処理を意味しています。&lt;/span&gt;" style="text;html=1;align=left;verticalAlign=middle;whiteSpace=wrap;rounded=0;" vertex="1" parent="1">
          <mxGeometry x="190" y="470" width="190" height="40" as="geometry" />
        </mxCell>
        <mxCell id="juHsKR98GJSo30kuV_IV-28" value="&lt;font style=&quot;font-size: 10px;&quot;&gt;データベース&lt;/font&gt;" style="text;html=1;align=center;verticalAlign=middle;whiteSpace=wrap;rounded=0;" vertex="1" parent="1">
          <mxGeometry x="232.5" y="450" width="105" height="30" as="geometry" />
        </mxCell>
        <mxCell id="juHsKR98GJSo30kuV_IV-98" value="&lt;font style=&quot;font-size: 10px;&quot;&gt;繰り返し処理開始&lt;/font&gt;" style="text;html=1;align=center;verticalAlign=middle;whiteSpace=wrap;rounded=0;" vertex="1" parent="1">
          <mxGeometry x="232.5" y="550" width="105" height="30" as="geometry" />
        </mxCell>
        <mxCell id="juHsKR98GJSo30kuV_IV-99" value="&lt;span style=&quot;font-size: 8px;&quot;&gt;繰り返しの開始条件を意味して意味しています。&lt;/span&gt;" style="text;html=1;align=left;verticalAlign=middle;whiteSpace=wrap;rounded=0;" vertex="1" parent="1">
          <mxGeometry x="190" y="570" width="190" height="40" as="geometry" />
        </mxCell>
        <mxCell id="juHsKR98GJSo30kuV_IV-100" value="" style="shape=loopLimit;whiteSpace=wrap;html=1;" vertex="1" parent="1">
          <mxGeometry x="60" y="550" width="120" height="60" as="geometry" />
        </mxCell>
        <mxCell id="juHsKR98GJSo30kuV_IV-107" value="" style="shape=loopLimit;whiteSpace=wrap;html=1;rotation=-180;" vertex="1" parent="1">
          <mxGeometry x="60" y="640" width="120" height="60" as="geometry" />
        </mxCell>
        <mxCell id="juHsKR98GJSo30kuV_IV-108" value="&lt;font style=&quot;font-size: 10px;&quot;&gt;繰り返し処理終了&lt;/font&gt;" style="text;html=1;align=center;verticalAlign=middle;whiteSpace=wrap;rounded=0;" vertex="1" parent="1">
          <mxGeometry x="232.5" y="640" width="105" height="30" as="geometry" />
        </mxCell>
        <mxCell id="juHsKR98GJSo30kuV_IV-110" value="&lt;span style=&quot;font-size: 8px;&quot;&gt;繰り返しの終了条件を意味して意味しています。&lt;/span&gt;" style="text;html=1;align=left;verticalAlign=middle;whiteSpace=wrap;rounded=0;" vertex="1" parent="1">
          <mxGeometry x="190" y="660" width="190" height="40" as="geometry" />
        </mxCell>
      </root>
    </mxGraphModel>
  </diagram>
</mxfile>
